<?xml version="1.0" encoding="iso-8859-1"?>
<!-- Generator: Adobe Illustrator 18.0.0, SVG Export Plug-In . SVG Version: 6.00 Build 0)  -->
<!DOCTYPE svg PUBLIC "-//W3C//DTD SVG 1.1//EN" "http://www.w3.org/Graphics/SVG/1.1/DTD/svg11.dtd">
<svg xmlns="http://www.w3.org/2000/svg" xmlns:xlink="http://www.w3.org/1999/xlink" version="1.1" id="Capa_1" x="0px" y="0px" viewBox="0 0 493.426 493.426" style="enable-background:new 0 0 493.426 493.426;" xml:space="preserve" width="512px" height="512px">
<g>
	<circle cx="244.6" cy="237.538" r="21.587" fill="#FFDA44"/>
	<path d="M81.665,148.365c17.481,0,31.646-14.166,31.646-31.646c0-17.481-14.165-31.646-31.646-31.646   c-17.482,0-31.647,14.165-31.647,31.646C50.018,134.198,64.183,148.365,81.665,148.365z" fill="#FFDA44"/>
	<circle cx="56.92" cy="266.867" r="2.467" fill="#FFDA44"/>
	<circle cx="88.226" cy="282.64" r="13.306" fill="#FFDA44"/>
	<circle cx="70.551" cy="302.734" r="4.918" fill="#FFDA44"/>
	<path d="M411.799,148.365c17.481,0,31.646-14.166,31.646-31.646c0-17.481-14.165-31.646-31.646-31.646   c-17.482,0-31.646,14.165-31.646,31.646C380.153,134.198,394.318,148.365,411.799,148.365z" fill="#FFDA44"/>
	<path d="M492.508,271.691l-45.128-109.696c-1.935-4.703-6.478-7.539-11.266-7.536c-0.037-0.002-0.074-0.006-0.112-0.006   c0,0-48.757,0.015-48.852,0.017c-4.579-0.108-9.028,2.372-11.197,6.746l-28.465,57.39l-45.146-17.4   c-6.273-2.416-13.311,0.708-15.729,6.977c-1.629,4.226-0.733,8.796,1.938,12.071l-31.894,42.578h-25.932l-32.707-39.104   c0.942-2.148,1.274-4.592,0.818-7.073c-1.213-6.608-7.545-10.983-14.164-9.768l-39.662,7.285l-27.665-52.964   c-0.807-1.544-1.902-2.837-3.181-3.859c-1.913-1.633-4.606-2.895-8.298-2.895c0,0-36.307,0-48.409,0   c-0.044,0-0.087,0.006-0.131,0.006c-4.793,0.061-9.344,2.828-11.281,7.535L0.918,271.691c-2.557,6.215,0.409,13.326,6.623,15.882   c1.515,0.623,3.083,0.918,4.625,0.918c4.785,0,9.324-2.842,11.257-7.542l19.875-48.312v8.402l-22.699,70.917   c-3.818,11.926,5.08,24.117,17.603,24.117h5.097v56.269c0,9.037,7.488,16.326,16.597,16.001   c8.677-0.309,15.427-7.703,15.427-16.385v-55.885h12.678v56.269c0,9.037,7.486,16.325,16.596,16.001   c8.677-0.309,15.428-7.704,15.428-16.386v-55.884h5.243c12.523,0,21.421-12.191,17.603-24.117l-22.846-70.917v-22.143l7.572,14.496   c2.124,4.066,6.312,6.534,10.78,6.534c0.729,0,1.466-0.066,2.202-0.201l39.905-7.329l39.505,47.232   c0.283,0.338,0.589,0.643,0.906,0.932v40.948l-20.593,8.922c-3.721,1.612-6.107,5.301-6.052,9.355l0.436,32.177   c0.075,5.502,4.558,9.912,10.044,9.911c0.046,0,0.093,0,0.138-0.001c5.548-0.075,9.986-4.634,9.911-10.182l-0.345-25.482   l22.539-9.765h15.37l22.539,9.765l-0.345,25.482c-0.075,5.548,4.362,10.107,9.911,10.182c0.046,0,0.092,0.001,0.138,0.001   c5.485,0,9.969-4.409,10.043-9.911l0.436-32.177c0.055-4.054-2.332-7.743-6.052-9.355l-20.069-8.695v-43.638l37.043-49.408   l43.096,16.61c1.435,0.553,2.915,0.816,4.372,0.816c4.501,0,8.794-2.511,10.904-6.763l9.076-18.298v171.288   c0,9.037,7.488,16.326,16.597,16.001c8.677-0.309,15.427-7.703,15.427-16.385v-86.412c0-3.376,2.548-6.324,5.917-6.542   c3.692-0.239,6.76,2.685,6.76,6.325v87.013c0,9.037,7.487,16.325,16.596,16.001c8.677-0.309,15.428-7.704,15.428-16.386V232.719   l19.842,48.231c1.934,4.7,6.472,7.542,11.257,7.542c1.542,0,3.11-0.295,4.625-0.918   C492.099,285.016,495.064,277.906,492.508,271.691z M120.634,293.723c0.143,0,0.283-0.014,0.424-0.021l7.327,22.891   c0.419,1.309-0.026,2.315-0.474,2.928c-0.447,0.613-1.269,1.343-2.644,1.343h-1.064c-0.501-4.495-4.31-7.992-8.939-7.992   s-8.438,3.496-8.938,7.992H54.171c-1.118-0.824-2.494-1.316-3.988-1.316c-1.495,0-2.871,0.493-3.989,1.316h-7.846   c-1.375,0-2.197-0.73-2.644-1.343c-0.447-0.613-0.892-1.618-0.473-2.927l6.338-19.8c1.226,0.651,2.622,1.022,4.107,1.022   c4.848,0,8.778-3.93,8.778-8.778c0-4.454-3.321-8.125-7.619-8.693l7.713-24.096h46.987c0,0.008-0.002,0.016-0.002,0.024   c0,1.923,1.559,3.483,3.483,3.483c1.923,0,3.483-1.56,3.483-3.483c0-0.008-0.003-0.016-0.003-0.024h0.574l6.949,21.708   c-2.371,1.522-3.946,4.177-3.946,7.204C112.072,289.89,115.906,293.723,120.634,293.723z M425.004,223.027l-9.323,9.322   c-2.174,2.174-5.701,2.174-7.875,0l-9.323-9.322c-1.404-1.405-1.955-3.452-1.444-5.371l8.94-33.569   c-2.622-0.047-4.733-2.183-4.733-4.816v-11.355c0-2.662,2.157-4.82,4.82-4.82h11.355c2.662,0,4.82,2.158,4.82,4.82v11.355   c0,2.633-2.111,4.769-4.733,4.816l8.94,33.569C426.958,219.576,426.408,221.622,425.004,223.027z" fill="#FFDA44"/>
</g>
<g>
</g>
<g>
</g>
<g>
</g>
<g>
</g>
<g>
</g>
<g>
</g>
<g>
</g>
<g>
</g>
<g>
</g>
<g>
</g>
<g>
</g>
<g>
</g>
<g>
</g>
<g>
</g>
<g>
</g>
</svg>
