<?xml version="1.0" encoding="iso-8859-1"?>
<!-- Generator: Adobe Illustrator 18.0.0, SVG Export Plug-In . SVG Version: 6.00 Build 0)  -->
<!DOCTYPE svg PUBLIC "-//W3C//DTD SVG 1.1//EN" "http://www.w3.org/Graphics/SVG/1.1/DTD/svg11.dtd">
<svg xmlns="http://www.w3.org/2000/svg" xmlns:xlink="http://www.w3.org/1999/xlink" version="1.1" id="Capa_1" x="0px" y="0px" viewBox="0 0 461.759 461.759" style="enable-background:new 0 0 461.759 461.759;" xml:space="preserve" width="512px" height="512px">
<g>
	<path d="M183.537,392.187c-20.333-15.012-32.472-39.042-32.472-64.28c0-5.523-4.477-10-10-10s-10,4.477-10,10   c0,31.559,15.175,61.604,40.593,80.37c1.787,1.32,3.868,1.956,5.932,1.956c3.065,0,6.092-1.406,8.053-4.061   C188.923,401.728,187.981,395.467,183.537,392.187z" fill="#D80027"/>
	<path d="M217.403,406.611c-3.905-0.664-7.789-1.629-11.543-2.868c-5.247-1.73-10.899,1.118-12.63,6.363   c-1.731,5.245,1.118,10.899,6.362,12.63c4.703,1.552,9.567,2.76,14.458,3.592c0.567,0.097,1.132,0.143,1.688,0.143   c4.787,0,9.017-3.448,9.847-8.325C226.511,412.702,222.848,407.537,217.403,406.611z" fill="#D80027"/>
	<path d="M298.644,268.079c-4.516,3.179-5.6,9.417-2.421,13.933c9.487,13.477,14.501,29.347,14.501,45.894c0,5.523,4.477,10,10,10   s10-4.477,10-10c0-20.69-6.275-40.541-18.147-57.406C309.399,265.984,303.161,264.901,298.644,268.079z" fill="#D80027"/>
	<path d="M287.735,245.827c-3.233-2.243-6.633-4.314-10.106-6.158c-4.88-2.59-10.933-0.733-13.521,4.145   c-2.589,4.878-0.733,10.932,4.145,13.521c2.777,1.474,5.496,3.131,8.082,4.924c1.738,1.206,3.725,1.785,5.691,1.785   c3.167,0,6.283-1.501,8.225-4.301C293.399,255.205,292.272,248.975,287.735,245.827z" fill="#D80027"/>
	<path d="M230.895,195.025c8.786,0,17.571-3.344,24.259-10.032c3.32-3.32,3.32-8.701,0-12.021c-3.319-3.319-8.701-3.319-12.021,0   c-6.749,6.749-17.729,6.749-24.478,0c-3.319-3.319-8.701-3.319-12.021,0c-3.32,3.32-3.32,8.701,0,12.021   C213.323,191.681,222.109,195.025,230.895,195.025z" fill="#D80027"/>
	<path d="M418.207,175.842l-13.451-0.913l19.348-19.348c3.905-3.905,3.905-10.237,0-14.142s-10.237-3.905-14.143,0l-9.79,9.79   l-2.436-11.619c-1.133-5.406-6.437-8.869-11.839-7.735c-5.405,1.133-8.869,6.434-7.735,11.839l5.117,24.408l-62.452,62.452   c-6.002-5.496-12.537-10.492-19.58-14.878c19.525-18.602,31.71-44.842,31.71-73.874c0-23.638-8.31-46.392-22.953-64.418h20.535   c5.523,0,10-4.477,10-10s-4.477-10-10-10h-36.031V10c0-5.523-4.477-10-10-10H177.282c-5.523,0-10,4.477-10,10v47.403h-36.031   c-5.523,0-10,4.477-10,10s4.477,10,10,10h20.534c-14.643,18.026-22.953,40.78-22.953,64.418c0,29.032,12.185,55.272,31.71,73.874   c-6.2,3.861-12.009,8.193-17.407,12.923L94.77,180.252l5.138-24.508c1.133-5.406-2.33-10.706-7.735-11.839   c-5.401-1.133-10.706,2.33-11.839,7.735l-2.457,11.719l-21.921-21.921c-3.905-3.905-10.237-3.905-14.143,0   c-3.905,3.905-3.905,10.237,0,14.142l11.621,11.621l-11.162,2.23c-5.416,1.082-8.929,6.349-7.847,11.765   c0.95,4.755,5.125,8.043,9.795,8.043c0.649,0,1.309-0.064,1.97-0.196l24.244-4.843l58.693,58.693   c-19.901,23.594-31.304,53.778-31.304,85.782c0,73.382,59.695,133.083,133.071,133.083s133.071-59.701,133.071-133.083   c0-30.99-10.685-60.279-29.432-83.526l51.45-51.45l30.868,2.096c0.23,0.016,0.459,0.023,0.688,0.023   c5.214,0,9.608-4.044,9.967-9.323C427.881,180.986,423.717,176.216,418.207,175.842z M274.507,20v11.409h-87.225V20H274.507z    M187.282,51.409h87.225v5.994h-87.225V51.409z M148.833,141.821c0-25.074,11.628-48.917,31.25-64.418h101.624   c19.621,15.501,31.249,39.344,31.249,64.418c0,45.249-36.813,82.062-82.062,82.062S148.833,187.07,148.833,141.821z    M230.895,441.759c-62.348,0-113.071-50.729-113.071-113.083c0-41.852,22.931-80.057,59.862-99.794   c15.503,9.51,33.726,15.001,53.209,15.001s37.706-5.49,53.209-15.001c36.932,19.738,59.862,57.942,59.862,99.794   C343.966,391.031,293.242,441.759,230.895,441.759z" fill="#D80027"/>
	<path d="M191.645,158.094c5.523,0,10-4.477,10-10v-9.688c0-5.523-4.477-10-10-10s-10,4.477-10,10v9.688   C181.645,153.617,186.122,158.094,191.645,158.094z" fill="#D80027"/>
	<path d="M270.145,158.094c5.523,0,10-4.477,10-10v-9.688c0-5.523-4.477-10-10-10s-10,4.477-10,10v9.688   C260.145,153.617,264.622,158.094,270.145,158.094z" fill="#D80027"/>
</g>
<g>
</g>
<g>
</g>
<g>
</g>
<g>
</g>
<g>
</g>
<g>
</g>
<g>
</g>
<g>
</g>
<g>
</g>
<g>
</g>
<g>
</g>
<g>
</g>
<g>
</g>
<g>
</g>
<g>
</g>
</svg>
